<svg xmlns="http://www.w3.org/2000/svg" viewBox="0 0 1600 1200"><defs>
<style>.cls-1{fill:#161b22;}.cls-2,.cls-5{fill:#0c7ceb;}.cls-3,.cls-6{fill:#00dfba;}.cls-4,.cls-8{fill:#fe2bf1;}.cls-5,.cls-6,.cls-8{font-size:64px;font-family:RobotoCondensed-Bold, Roboto Condensed;font-weight:700;}.cls-5,.cls-7{letter-spacing:0.01em;}.cls-6{letter-spacing:-0.08em;}.cls-8{letter-spacing:0.01em;}</style>
</defs>
  <title>rock-paper-scissors-hand-icons</title>
  <g id="Background"><rect class="cls-1" width="1600" height="1200"/>
  </g>
  <g id="Hand_icons" data-name="Hand icons">
  <path class="cls-2" d="M1200,525.58h40V481.74a32.24,32.24,0,0,1,10.14-23.46l15.31-108.93a22.69,22.69,0,0,0-44.93-6.31L1199.3,488.56a4,4,0,0,1-7.92,0l-21.27-145.93a22.68,22.68,0,1,0-44.93,6.3c5.87,43.8,10.31,75.05,13.56,97.87,8.22,57.79,9.61,67.63,9.85,108.53A59.4,59.4,0,0,1,1200,525.58Z"/><path class="cls-2" d="M1329.09,574.39a32.36,32.36,0,0,1-27-14.54,44.76,44.76,0,0,1-41.89,29.1h-16a51.39,51.39,0,0,1,23.89,43.37v14a4,4,0,0,1-8,0v-14A43.42,43.42,0,0,0,1216.69,589a4,4,0,0,1-4-4h0a4,4,0,0,1,4-4h43.52a36.54,36.54,0,0,0,23.73-8.74,37.09,37.09,0,0,0,8.16-9.85,36.4,36.4,0,0,0,4.77-17.28c0-.27,0-.54,0-.82a10,10,0,0,0-.17-1.66c0-.13,0-.26,0-.39a10.7,10.7,0,0,0-10.48-8.63H1200A51.44,51.44,0,0,0,1148.64,585h0c0,30.59,11.51,58.23,32.4,77.82a103,103,0,0,0,76.84,27.37c53.59-3.47,95.58-50,95.58-105.84v-21A32.29,32.29,0,0,1,1329.09,574.39Z"/><path class="cls-2" d="M1329.09,483a24.41,24.41,0,0,0-24.38,24.38v34.32a18.18,18.18,0,0,1,.2,2.57c0,.2,0,.41,0,.61a24.36,24.36,0,0,0,48.56-2.85V507.37A24.4,24.4,0,0,0,1329.09,483Z"/><path class="cls-2" d="M1264.46,458.7q-.54.18-1,.39c-.35.14-.7.28-1,.44s-.72.33-1.07.51l-.92.49c-.38.21-.75.44-1.11.68s-.52.32-.78.5-.77.56-1.14.86c-.22.17-.44.33-.65.51a24.33,24.33,0,0,0-8.74,18.66v43.84h38.27a18.51,18.51,0,0,1,10.48,3.23V481.74a24.4,24.4,0,0,0-21.88-24.24,22.81,22.81,0,0,0-2.49-.13,22.24,22.24,0,0,0-2.32.12c-.31,0-.62.08-.92.12s-.9.12-1.34.21-.73.16-1.09.24-.74.18-1.11.29Z"/><path class="cls-3" d="M874.89,400.12a18.09,18.09,0,0,0-18.07,18.06v86.39a4,4,0,1,1-8,0V375.72a21.2,21.2,0,0,0-21.18-21.18,21,21,0,0,0-15.28,6.29,21.44,21.44,0,0,0-5.9,15V504.57a4,4,0,0,1-8,0V377.4a22.89,22.89,0,0,0-22.86-22.86c-14.31,0-22.86,12.36-22.86,24.3V504.57a4,4,0,0,1-8,0v-103a21.2,21.2,0,0,0-21.18-21.18c-13.26,0-21.18,11.45-21.18,22.53V559.21h47a64.49,64.49,0,0,1,48.85,22.37,4,4,0,0,1-.41,5.64,4,4,0,0,1-5.64-.41,56.51,56.51,0,0,0-42.8-19.6h-51a4.53,4.53,0,0,1-.53-.05l-.21,0a4.43,4.43,0,0,1-.95-.32l-.21-.11a4.64,4.64,0,0,1-.74-.51l-.1-.08-19.83-18.63a37.67,37.67,0,0,0-52.56.73,9.8,9.8,0,0,0-.3,13.64l75.11,81.49c30.13,33.4,60.75,47,105.69,47,49.19,0,89.21-40.43,89.21-90.14V419.07C893,409.88,886.63,400.12,874.89,400.12Z"/><path class="cls-4" d="M394.37,513.1V459.7a26.59,26.59,0,0,0-53.18,0v51.93h46.9A14.26,14.26,0,0,1,394.37,513.1Z"/><path class="cls-4" d="M271.35,511.63V457.68a22.22,22.22,0,0,0-44.44,0v66.48a56.21,56.21,0,0,1,35.42-12.53Z"/><path class="cls-4" d="M427.1,567.16a32.72,32.72,0,0,1-28.31-16.37,49.65,49.65,0,0,1-46,31.11H319.55a54.64,54.64,0,0,1,26.2,46.63v15a4,4,0,0,1-8,0v-15a46.69,46.69,0,0,0-46.63-46.63h-.71a4,4,0,0,1-4-4h0a4,4,0,0,1,4-4H352.8a41.61,41.61,0,0,0,41.57-41.56v-6.43a6.28,6.28,0,0,0-6.28-6.28H262.33a48.4,48.4,0,0,0-36.94,17.13c-.67.79-1.33,1.59-1.94,2.42-.26.34-.5.69-.74,1-.61.86-1.2,1.73-1.75,2.63-.18.29-.35.59-.52.89-.56,1-1.09,1.94-1.59,2.93l-.24.49c-.56,1.16-1.06,2.34-1.52,3.54-.06.16-.13.31-.19.47-.45,1.21-.85,2.45-1.21,3.7,0,.16-.09.32-.13.48-.35,1.26-.64,2.53-.88,3.81l-.09.5c-.23,1.29-.41,2.6-.53,3.91,0,.15,0,.3,0,.46-.11,1.36-.18,2.72-.18,4.09,0,3.3.16,6.55.42,9.78,5,62.85,57.71,112.46,121.82,112.46h14.54A101.33,101.33,0,0,0,451.84,589.15V555.81A32.65,32.65,0,0,1,427.1,567.16Z"/><path class="cls-4" d="M333.19,460a26.92,26.92,0,0,0-53.84,0v51.6h53.84Z"/><path class="cls-4" d="M427.1,472.09a24.76,24.76,0,0,0-24.73,24.74v37.6a24.74,24.74,0,0,0,49.47,0v-37.6A24.77,24.77,0,0,0,427.1,472.09Z"/></g><g id="Text"><text class="cls-5" transform="translate(1114.92 859.58)">SCISSORS</text><text class="cls-6" transform="translate(704.89 859.58)">P<tspan class="cls-7" x="31.48" y="0">APER</tspan></text><text class="cls-8" transform="translate(249.91 859.58)">ROCK</text></g></svg>